# Blender v2.66 (sub 0) OBJ File: ''
# www.blender.org
mtllib asset/scene.mtl
o Cube.001_Cube.003
v -7.703174 0.000000 -4.019525
v -7.895310 0.000000 -6.010274
v -5.904561 0.000000 -6.202411
v -5.712424 0.000000 -4.211661
v -7.703174 2.000000 -4.019525
v -7.895310 2.000000 -6.010274
v -5.904561 2.000000 -6.202411
v -5.712424 2.000000 -4.211661
vn -0.995375 0.000000 0.096068
vn -0.096068 0.000000 -0.995375
vn 0.995375 0.000000 -0.096068
vn 0.096068 -0.000000 0.995375
vn 0.000000 -1.000000 0.000000
vn -0.000000 1.000000 0.000000
usemtl bg
s off
f 5//1 6//1 1//1
f 6//2 7//2 2//2
f 7//3 8//3 4//3
f 8//4 5//4 1//4
f 1//5 2//5 3//5
f 8//6 7//6 6//6
f 6//1 2//1 1//1
f 7//2 3//2 2//2
f 3//3 7//3 4//3
f 4//4 8//4 1//4
f 4//5 1//5 3//5
f 5//6 8//6 6//6
o Plane
v 10.000000 0.000000 10.000000
v -10.000000 0.000000 10.000000
v 10.000000 0.000000 -10.000000
v -10.000000 0.000000 -10.000000
usemtl plane
s off
f 10//6 9//6 11//6
f 12//6 10//6 11//6
o Cube.002_Cube.004
v -5.568948 0.000000 -4.377717
v -4.796503 0.000000 -6.222529
v -2.951692 0.000000 -5.450084
v -3.724136 0.000000 -3.605273
v -5.568948 2.000000 -4.377717
v -4.796503 2.000000 -6.222529
v -2.951692 2.000000 -5.450084
v -3.724136 2.000000 -3.605273
vn -0.922406 0.000000 -0.386222
vn 0.386222 0.000000 -0.922406
vn 0.922406 -0.000000 0.386222
vn -0.386222 0.000000 0.922406
usemtl bg
s off
f 17//7 18//7 13//7
f 18//8 19//8 15//8
f 19//9 20//9 16//9
f 20//10 17//10 16//10
f 13//5 14//5 15//5
f 20//6 19//6 18//6
f 18//7 14//7 13//7
f 14//8 18//8 15//8
f 15//9 19//9 16//9
f 17//10 13//10 16//10
f 16//5 13//5 15//5
f 17//6 20//6 18//6
o Cube.003_Cube.005
v -2.501881 0.000000 -4.765902
v -2.498529 0.000000 -6.765899
v -0.498532 0.000000 -6.762547
v -0.501884 0.000000 -4.762550
v -2.501881 2.000000 -4.765902
v -2.498529 2.000000 -6.765899
v -0.498532 2.000000 -6.762547
v -0.501884 2.000000 -4.762550
vn -0.999999 0.000000 -0.001676
vn 0.001676 0.000000 -0.999999
vn 0.999999 -0.000000 0.001676
vn -0.001676 0.000000 0.999999
usemtl bg
s off
f 25//11 26//11 21//11
f 26//12 27//12 23//12
f 27//13 28//13 24//13
f 28//14 25//14 24//14
f 21//5 22//5 23//5
f 28//6 27//6 26//6
f 26//11 22//11 21//11
f 22//12 26//12 23//12
f 23//13 27//13 24//13
f 25//14 21//14 24//14
f 24//5 21//5 23//5
f 25//6 28//6 26//6
o Cube.004_Cube.006
v 0.042801 0.000000 -4.371157
v -0.154120 0.000000 -6.361439
v 1.836162 0.000000 -6.558360
v 2.033083 0.000000 -4.568078
v 0.042801 2.000000 -4.371157
v -0.154120 2.000000 -6.361439
v 1.836162 2.000000 -6.558360
v 2.033083 2.000000 -4.568078
vn -0.995141 0.000000 0.098461
vn -0.098461 0.000000 -0.995141
vn 0.995141 0.000000 -0.098461
vn 0.098461 -0.000000 0.995141
usemtl bg
s off
f 33//15 34//15 29//15
f 34//16 35//16 30//16
f 35//17 36//17 32//17
f 36//18 33//18 29//18
f 29//5 30//5 31//5
f 36//6 35//6 34//6
f 34//15 30//15 29//15
f 35//16 31//16 30//16
f 31//17 35//17 32//17
f 32//18 36//18 29//18
f 32//5 29//5 31//5
f 33//6 36//6 34//6
o Cube.005_Cube.007
v 1.952106 0.000000 -3.962728
v 2.884873 0.000000 -5.731893
v 4.654038 0.000000 -4.799126
v 3.721272 0.000000 -3.029961
v 1.952106 2.000000 -3.962728
v 2.884873 2.000000 -5.731893
v 4.654038 2.000000 -4.799126
v 3.721272 2.000000 -3.029961
vn -0.884583 0.000000 -0.466383
vn 0.466383 0.000000 -0.884583
vn 0.884583 -0.000000 0.466384
vn -0.466383 0.000000 0.884583
usemtl bg
s off
f 41//19 42//19 37//19
f 42//20 43//20 39//20
f 43//21 44//21 40//21
f 44//22 41//22 40//22
f 37//5 38//5 39//5
f 44//6 43//6 42//6
f 42//19 38//19 37//19
f 38//20 42//20 39//20
f 39//21 43//21 40//21
f 41//22 37//22 40//22
f 40//5 37//5 39//5
f 41//6 44//6 42//6
o Cube.006_Cube.008
v 4.910981 0.000000 -4.586767
v 4.726720 0.000000 -6.578261
v 6.718214 0.000000 -6.762522
v 6.902475 0.000000 -4.771028
v 4.910981 2.000000 -4.586767
v 4.726720 2.000000 -6.578261
v 6.718214 2.000000 -6.762522
v 6.902475 2.000000 -4.771028
vn -0.995747 0.000000 0.092130
vn -0.092130 0.000000 -0.995747
vn 0.995747 0.000000 -0.092130
vn 0.092130 -0.000000 0.995747
usemtl bg
s off
f 49//23 50//23 45//23
f 50//24 51//24 46//24
f 51//25 52//25 48//25
f 52//26 49//26 45//26
f 45//5 46//5 47//5
f 52//6 51//6 50//6
f 50//23 46//23 45//23
f 51//24 47//24 46//24
f 47//25 51//25 48//25
f 48//26 52//26 45//26
f 48//5 45//5 47//5
f 49//6 52//6 50//6
o Cube.007_Cube.009
v -4.626044 0.000000 -6.970948
v -4.810305 0.000000 -8.962442
v -2.818811 0.000000 -9.146703
v -2.634551 0.000000 -7.155209
v -4.626044 2.000000 -6.970948
v -4.810305 2.000000 -8.962442
v -2.818811 2.000000 -9.146703
v -2.634551 2.000000 -7.155209
usemtl bg
s off
f 57//23 58//23 53//23
f 58//24 59//24 54//24
f 59//25 60//25 56//25
f 60//26 57//26 53//26
f 53//5 54//5 55//5
f 60//6 59//6 58//6
f 58//23 54//23 53//23
f 59//24 55//24 54//24
f 55//25 59//25 56//25
f 56//26 60//26 53//26
f 56//5 53//5 55//5
f 57//6 60//6 58//6
o Cube.008_Cube.010
v -10.096333 0.000000 -2.787749
v -10.565819 0.000000 -4.731864
v -8.621704 0.000000 -5.201350
v -8.152218 0.000000 -3.257235
v -10.096333 2.000000 -2.787749
v -10.565819 2.000000 -4.731864
v -8.621704 2.000000 -5.201350
v -8.152218 2.000000 -3.257235
vn -0.972057 0.000000 0.234743
vn -0.234743 0.000000 -0.972057
vn 0.972057 0.000000 -0.234743
vn 0.234743 -0.000000 0.972057
usemtl bg
s off
f 65//27 66//27 61//27
f 66//28 67//28 62//28
f 67//29 68//29 64//29
f 68//30 65//30 61//30
f 61//5 62//5 63//5
f 68//6 67//6 66//6
f 66//27 62//27 61//27
f 67//28 63//28 62//28
f 63//29 67//29 64//29
f 64//30 68//30 61//30
f 64//5 61//5 63//5
f 65//6 68//6 66//6
o Cube.009_Cube.011
v -10.300145 0.000000 -5.605346
v -10.136187 0.000000 -7.598615
v -8.142919 0.000000 -7.434657
v -8.306877 0.000000 -5.441388
v -10.300145 2.000000 -5.605346
v -10.136187 2.000000 -7.598615
v -8.142919 2.000000 -7.434657
v -8.306877 2.000000 -5.441388
vn -0.996634 0.000000 -0.081979
vn 0.081979 0.000000 -0.996634
vn 0.996634 -0.000000 0.081979
vn -0.081979 0.000000 0.996634
usemtl bg
s off
f 73//31 74//31 69//31
f 74//32 75//32 71//32
f 75//33 76//33 72//33
f 76//34 73//34 72//34
f 69//5 70//5 71//5
f 76//6 75//6 74//6
f 74//31 70//31 69//31
f 70//32 74//32 71//32
f 71//33 75//33 72//33
f 73//34 69//34 72//34
f 72//5 69//5 71//5
f 73//6 76//6 74//6
o Cube.010_Cube.012
v 6.623302 0.000000 -3.767474
v 7.358378 0.000000 -5.627491
v 9.218395 0.000000 -4.892413
v 8.483318 0.000000 -3.032397
v 6.623302 2.000000 -3.767474
v 7.358378 2.000000 -5.627491
v 9.218395 2.000000 -4.892413
v 8.483318 2.000000 -3.032397
vn -0.930008 0.000000 -0.367538
vn 0.367539 0.000000 -0.930008
vn 0.930008 -0.000000 0.367539
vn -0.367539 0.000000 0.930008
usemtl bg
s off
f 81//35 82//35 77//35
f 82//36 83//36 79//36
f 83//37 84//37 80//37
f 84//38 81//38 80//38
f 77//5 78//5 79//5
f 84//6 83//6 82//6
f 82//35 78//35 77//35
f 78//36 82//36 79//36
f 79//37 83//37 80//37
f 81//38 77//38 80//38
f 80//5 77//5 79//5
f 81//6 84//6 82//6
o Cube.011_Cube.013
v -5.460566 2.000000 -5.261883
v -5.008256 2.000000 -7.210065
v -3.060073 2.000000 -6.757755
v -3.512383 2.000000 -4.809573
v -5.460566 4.000000 -5.261883
v -5.008256 4.000000 -7.210065
v -3.060073 4.000000 -6.757755
v -3.512383 4.000000 -4.809573
vn -0.974091 0.000000 -0.226155
vn 0.226155 0.000000 -0.974091
vn 0.974091 -0.000000 0.226155
vn -0.226155 0.000000 0.974091
usemtl bg
s off
f 89//39 90//39 85//39
f 90//40 91//40 87//40
f 91//41 92//41 88//41
f 92//42 89//42 88//42
f 85//5 86//5 87//5
f 92//6 91//6 90//6
f 90//39 86//39 85//39
f 86//40 90//40 87//40
f 87//41 91//41 88//41
f 89//42 85//42 88//42
f 88//5 85//5 87//5
f 89//6 92//6 90//6
o Cube.012_Cube.014
v -1.068871 2.000000 -4.676950
v -1.929024 2.000000 -6.482535
v -0.123439 2.000000 -7.342688
v 0.736714 2.000000 -5.537103
v -1.068871 4.000000 -4.676950
v -1.929024 4.000000 -6.482535
v -0.123439 4.000000 -7.342688
v 0.736714 4.000000 -5.537103
vn -0.902792 0.000000 0.430077
vn -0.430077 0.000000 -0.902792
vn 0.902792 0.000000 -0.430077
vn 0.430077 -0.000000 0.902792
usemtl bg
s off
f 97//43 98//43 93//43
f 98//44 99//44 94//44
f 99//45 100//45 96//45
f 100//46 97//46 93//46
f 93//5 94//5 95//5
f 100//6 99//6 98//6
f 98//43 94//43 93//43
f 99//44 95//44 94//44
f 95//45 99//45 96//45
f 96//46 100//46 93//46
f 96//5 93//5 95//5
f 97//6 100//6 98//6
o Cube.013_Cube.015
v 2.700653 2.000000 -3.212731
v 0.967371 2.000000 -4.210595
v 1.965234 2.000000 -5.943877
v 3.698517 2.000000 -4.946013
v 2.700653 4.000000 -3.212731
v 0.967371 4.000000 -4.210595
v 1.965234 4.000000 -5.943877
v 3.698517 4.000000 -4.946013
vn -0.498932 0.000000 0.866641
vn -0.866641 0.000000 -0.498932
vn 0.498932 0.000000 -0.866641
vn 0.866641 -0.000000 0.498932
usemtl bg
s off
f 105//47 106//47 101//47
f 106//48 107//48 102//48
f 107//49 108//49 104//49
f 108//50 105//50 101//50
f 101//5 102//5 103//5
f 108//6 107//6 106//6
f 106//47 102//47 101//47
f 107//48 103//48 102//48
f 103//49 107//49 104//49
f 104//50 108//50 101//50
f 104//5 101//5 103//5
f 105//6 108//6 106//6
o Cube.014_Cube.016
v 5.792035 2.000000 -3.499347
v 3.957256 2.000000 -4.295328
v 4.753238 2.000000 -6.130107
v 6.588017 2.000000 -5.334126
v 5.792035 4.000000 -3.499347
v 3.957256 4.000000 -4.295328
v 4.753238 4.000000 -6.130107
v 6.588017 4.000000 -5.334126
vn -0.397991 0.000000 0.917390
vn -0.917390 0.000000 -0.397991
vn 0.397991 0.000000 -0.917390
vn 0.917390 -0.000000 0.397991
usemtl bg
s off
f 113//51 114//51 109//51
f 114//52 115//52 110//52
f 115//53 116//53 112//53
f 116//54 113//54 109//54
f 109//5 110//5 111//5
f 116//6 115//6 114//6
f 114//51 110//51 109//51
f 115//52 111//52 110//52
f 111//53 115//53 112//53
f 112//54 116//54 109//54
f 112//5 109//5 111//5
f 113//6 116//6 114//6
o Cube.015_Cube.017
v -7.276507 2.000000 -4.761865
v -9.253332 2.000000 -5.065451
v -8.949746 2.000000 -7.042275
v -6.972921 2.000000 -6.738689
v -7.276507 4.000000 -4.761865
v -9.253332 4.000000 -5.065451
v -8.949746 4.000000 -7.042275
v -6.972921 4.000000 -6.738689
vn -0.151793 0.000000 0.988412
vn -0.988412 0.000000 -0.151793
vn 0.151793 0.000000 -0.988412
vn 0.988412 -0.000000 0.151793
usemtl bg
s off
f 121//55 122//55 117//55
f 122//56 123//56 118//56
f 123//57 124//57 120//57
f 124//58 121//58 117//58
f 117//5 118//5 119//5
f 124//6 123//6 122//6
f 122//55 118//55 117//55
f 123//56 119//56 118//56
f 119//57 123//57 120//57
f 120//58 124//58 117//58
f 120//5 117//5 119//5
f 121//6 124//6 122//6
o Cube.016_Cube.018
v -5.902273 2.000000 -6.745781
v -7.759905 2.000000 -7.486862
v -7.018824 2.000000 -9.344494
v -5.161192 2.000000 -8.603414
v -5.902273 4.000000 -6.745781
v -7.759905 4.000000 -7.486862
v -7.018824 4.000000 -9.344494
v -5.161192 4.000000 -8.603414
vn -0.370540 0.000000 0.928816
vn -0.928816 0.000000 -0.370540
vn 0.370540 0.000000 -0.928816
vn 0.928816 -0.000000 0.370540
usemtl bg
s off
f 129//59 130//59 125//59
f 130//60 131//60 126//60
f 131//61 132//61 128//61
f 132//62 129//62 125//62
f 125//5 126//5 127//5
f 132//6 131//6 130//6
f 130//59 126//59 125//59
f 131//60 127//60 126//60
f 127//61 131//61 128//61
f 128//62 132//62 125//62
f 128//5 125//5 127//5
f 129//6 132//6 130//6
o Cube.017_Cube.019
v -2.626707 2.000000 -6.630964
v -4.030173 2.000000 -8.055844
v -2.605293 2.000000 -9.459311
v -1.201827 2.000000 -8.034431
v -2.626707 4.000000 -6.630964
v -4.030173 4.000000 -8.055844
v -2.605293 4.000000 -9.459311
v -1.201827 4.000000 -8.034431
vn -0.712440 0.000000 0.701733
vn -0.701733 0.000000 -0.712440
vn 0.712440 0.000000 -0.701733
vn 0.701733 -0.000000 0.712440
usemtl bg
s off
f 137//63 138//63 133//63
f 138//64 139//64 134//64
f 139//65 140//65 136//65
f 140//66 137//66 133//66
f 133//5 134//5 135//5
f 140//6 139//6 138//6
f 138//63 134//63 133//63
f 139//64 135//64 134//64
f 135//65 139//65 136//65
f 136//66 140//66 133//66
f 136//5 133//5 135//5
f 137//6 140//6 138//6
o Cube.018_Cube.020
v -2.319936 4.000000 -5.360888
v -4.074991 4.000000 -6.319940
v -3.115939 4.000000 -8.074995
v -1.360884 4.000000 -7.115943
v -2.319936 6.000000 -5.360888
v -4.074991 6.000000 -6.319940
v -3.115939 6.000000 -8.074995
v -1.360884 6.000000 -7.115943
vn -0.479526 0.000000 0.877528
vn -0.877528 0.000000 -0.479526
vn 0.479526 0.000000 -0.877528
vn 0.877528 -0.000000 0.479526
usemtl bg
s off
f 145//67 146//67 141//67
f 146//68 147//68 142//68
f 147//69 148//69 144//69
f 148//70 145//70 141//70
f 141//5 142//5 143//5
f 148//6 147//6 146//6
f 146//67 142//67 141//67
f 147//68 143//68 142//68
f 143//69 147//69 144//69
f 144//70 148//70 141//70
f 144//5 141//5 143//5
f 145//6 148//6 146//6
o Cube.019_Cube.021
v 0.695438 4.000000 -4.310970
v -0.501230 4.000000 -5.913464
v 1.101264 4.000000 -7.110132
v 2.297932 4.000000 -5.507638
v 0.695438 6.000000 -4.310970
v -0.501230 6.000000 -5.913464
v 1.101264 6.000000 -7.110132
v 2.297932 6.000000 -5.507638
vn -0.801247 0.000000 0.598334
vn -0.598334 0.000000 -0.801247
vn 0.801247 0.000000 -0.598334
vn 0.598334 -0.000000 0.801247
usemtl bg
s off
f 153//71 154//71 149//71
f 154//72 155//72 150//72
f 155//73 156//73 152//73
f 156//74 153//74 149//74
f 149//5 150//5 151//5
f 156//6 155//6 154//6
f 154//71 150//71 149//71
f 155//72 151//72 150//72
f 151//73 155//73 152//73
f 152//74 156//74 149//74
f 152//5 149//5 151//5
f 153//6 156//6 154//6
o Cube.020_Cube.022
v 4.153592 4.000000 -4.353127
v 2.399430 4.000000 -5.313813
v 3.360116 4.000000 -7.067975
v 5.114277 4.000000 -6.107289
v 4.153592 6.000000 -4.353127
v 2.399430 6.000000 -5.313813
v 3.360116 6.000000 -7.067975
v 5.114277 6.000000 -6.107289
vn -0.480343 0.000000 0.877081
vn -0.877081 0.000000 -0.480343
vn 0.480343 0.000000 -0.877081
vn 0.877081 -0.000000 0.480343
usemtl bg
s off
f 161//75 162//75 157//75
f 162//76 163//76 158//76
f 163//77 164//77 160//77
f 164//78 161//78 157//78
f 157//5 158//5 159//5
f 164//6 163//6 162//6
f 162//75 158//75 157//75
f 163//76 159//76 158//76
f 159//77 163//77 160//77
f 160//78 164//78 157//78
f 160//5 157//5 159//5
f 161//6 164//6 162//6
o Cube.021_Cube.023
v -7.270238 4.000000 -6.862047
v -5.421240 4.000000 -7.624414
v -4.658872 4.000000 -5.775415
v -6.507871 4.000000 -5.013048
v -7.270238 6.000000 -6.862047
v -5.421240 6.000000 -7.624414
v -4.658872 6.000000 -5.775415
v -6.507871 6.000000 -5.013048
vn -0.381184 0.000000 -0.924499
vn 0.924499 0.000000 -0.381184
vn 0.381184 -0.000000 0.924499
vn -0.924499 0.000000 0.381184
usemtl bg
s off
f 169//79 170//79 165//79
f 170//80 171//80 167//80
f 171//81 172//81 168//81
f 172//82 169//82 168//82
f 165//5 166//5 167//5
f 172//6 171//6 170//6
f 170//79 166//79 165//79
f 166//80 170//80 167//80
f 167//81 171//81 168//81
f 169//82 165//82 168//82
f 168//5 165//5 167//5
f 169//6 172//6 170//6
o Cube.022_Cube.024
v -2.404020 6.000000 -7.095425
v -0.445486 6.000000 -7.500572
v -0.040339 6.000000 -5.542037
v -1.998874 6.000000 -5.136891
v -2.404020 8.000000 -7.095425
v -0.445486 8.000000 -7.500572
v -0.040339 8.000000 -5.542037
v -1.998874 8.000000 -5.136891
vn -0.202573 0.000000 -0.979267
vn 0.979267 0.000000 -0.202573
vn 0.202573 -0.000000 0.979267
vn -0.979267 0.000000 0.202573
usemtl bg
s off
f 177//83 178//83 173//83
f 178//84 179//84 175//84
f 179//85 180//85 176//85
f 180//86 177//86 176//86
f 173//5 174//5 175//5
f 180//6 179//6 178//6
f 178//83 174//83 173//83
f 174//84 178//84 175//84
f 175//85 179//85 176//85
f 177//86 173//86 176//86
f 176//5 173//5 175//5
f 177//6 180//6 178//6
o Cube.023_Cube.025
v 0.801834 6.000000 -7.258822
v 2.798442 6.000000 -7.375248
v 2.914868 6.000000 -5.378640
v 0.918259 6.000000 -5.262214
v 0.801834 8.000000 -7.258822
v 2.798442 8.000000 -7.375248
v 2.914868 8.000000 -5.378640
v 0.918259 8.000000 -5.262214
vn -0.058213 0.000000 -0.998304
vn 0.998304 0.000000 -0.058213
vn 0.058213 -0.000000 0.998304
vn -0.998304 0.000000 0.058213
usemtl bg
s off
f 185//87 186//87 181//87
f 186//88 187//88 183//88
f 187//89 188//89 184//89
f 188//90 185//90 184//90
f 181//5 182//5 183//5
f 188//6 187//6 186//6
f 186//87 182//87 181//87
f 182//88 186//88 183//88
f 183//89 187//89 184//89
f 185//90 181//90 184//90
f 184//5 181//5 183//5
f 185//6 188//6 186//6
o Cube.024_Cube.026
v -5.507272 6.000000 -7.331183
v -3.510084 6.000000 -7.225163
v -3.616103 6.000000 -5.227975
v -5.613291 6.000000 -5.333995
v -5.507272 8.000000 -7.331183
v -3.510084 8.000000 -7.225163
v -3.616103 8.000000 -5.227975
v -5.613291 8.000000 -5.333995
vn 0.053010 0.000000 -0.998594
vn 0.998594 -0.000000 0.053010
vn -0.053010 0.000000 0.998594
vn -0.998594 0.000000 -0.053010
usemtl bg
s off
f 193//91 194//91 190//91
f 194//92 195//92 191//92
f 195//93 196//93 191//93
f 196//94 193//94 192//94
f 189//5 190//5 191//5
f 196//6 195//6 194//6
f 189//91 193//91 190//91
f 190//92 194//92 191//92
f 196//93 192//93 191//93
f 193//94 189//94 192//94
f 192//5 189//5 191//5
f 193//6 196//6 194//6
o Cube.025_Cube.027
v -0.577735 8.000000 -7.980089
v 1.419453 8.000000 -7.874069
v 1.313433 8.000000 -5.876881
v -0.683755 8.000000 -5.982901
v -0.577735 10.000000 -7.980089
v 1.419453 10.000000 -7.874069
v 1.313433 10.000000 -5.876881
v -0.683755 10.000000 -5.982901
usemtl bg
s off
f 201//91 202//91 198//91
f 202//92 203//92 199//92
f 203//93 204//93 199//93
f 204//94 201//94 200//94
f 197//5 198//5 199//5
f 204//6 203//6 202//6
f 197//91 201//91 198//91
f 198//92 202//92 199//92
f 204//93 200//93 199//93
f 201//94 197//94 200//94
f 200//5 197//5 199//5
f 201//6 204//6 202//6
o Cube.026_Cube.028
v 7.552434 0.000000 -0.678621
v 7.996644 0.000000 -2.628666
v 9.946690 0.000000 -2.184456
v 9.502480 0.000000 -0.234411
v 7.552434 2.000000 -0.678621
v 7.996644 2.000000 -2.628666
v 9.946690 2.000000 -2.184456
v 9.502480 2.000000 -0.234411
vn -0.975023 0.000000 -0.222105
vn 0.222105 0.000000 -0.975023
vn 0.975023 -0.000000 0.222105
vn -0.222105 0.000000 0.975023
usemtl bg
s off
f 209//95 210//95 205//95
f 210//96 211//96 207//96
f 211//97 212//97 208//97
f 212//98 209//98 208//98
f 205//5 206//5 207//5
f 212//6 211//6 210//6
f 210//95 206//95 205//95
f 206//96 210//96 207//96
f 207//97 211//97 208//97
f 209//98 205//98 208//98
f 208//5 205//5 207//5
f 209//6 212//6 210//6
o Cube.027_Cube.029
v -11.771915 0.000000 -0.972329
v -10.893542 0.000000 -2.769121
v -9.096750 0.000000 -1.890748
v -9.975123 0.000000 -0.093956
v -11.771915 2.000000 -0.972329
v -10.893542 2.000000 -2.769121
v -9.096750 2.000000 -1.890748
v -9.975123 2.000000 -0.093956
vn -0.898396 0.000000 -0.439187
vn 0.439187 0.000000 -0.898396
vn 0.898396 -0.000000 0.439187
vn -0.439187 0.000000 0.898396
usemtl bg
s off
f 217//99 218//99 213//99
f 218//100 219//100 215//100
f 219//101 220//101 216//101
f 220//102 217//102 216//102
f 213//5 214//5 215//5
f 220//6 219//6 218//6
f 218//99 214//99 213//99
f 214//100 218//100 215//100
f 215//101 219//101 216//101
f 217//102 213//102 216//102
f 216//5 213//5 215//5
f 217//6 220//6 218//6
o Cube.028_Cube.030
v -8.997399 0.000000 -0.683154
v -8.487400 0.000000 -2.617037
v -6.553517 0.000000 -2.107038
v -7.063517 0.000000 -0.173155
v -8.997399 2.000000 -0.683154
v -8.487400 2.000000 -2.617037
v -6.553517 2.000000 -2.107038
v -7.063517 2.000000 -0.173155
vn -0.966941 0.000000 -0.255000
vn 0.254999 0.000000 -0.966941
vn 0.966941 -0.000000 0.255000
vn -0.255000 0.000000 0.966941
usemtl bg
s off
f 225//103 226//103 221//103
f 226//104 227//104 223//104
f 227//105 228//105 224//105
f 228//106 225//106 224//106
f 221//5 222//5 223//5
f 228//6 227//6 226//6
f 226//103 222//103 221//103
f 222//104 226//104 223//104
f 223//105 227//105 224//105
f 225//106 221//106 224//106
f 224//5 221//5 223//5
f 225//6 228//6 226//6
o Cube.029_Cube.031
v -10.647727 0.000000 2.600868
v -10.397840 0.000000 0.616540
v -8.413512 0.000000 0.866427
v -8.663399 0.000000 2.850754
v -10.647727 2.000000 2.600868
v -10.397840 2.000000 0.616540
v -8.413512 2.000000 0.866427
v -8.663399 2.000000 2.850754
vn -0.992164 0.000000 -0.124943
vn 0.124943 0.000000 -0.992164
vn 0.992164 -0.000000 0.124943
vn -0.124943 0.000000 0.992164
usemtl bg
s off
f 233//107 234//107 229//107
f 234//108 235//108 231//108
f 235//109 236//109 232//109
f 236//110 233//110 232//110
f 229//5 230//5 231//5
f 236//6 235//6 234//6
f 234//107 230//107 229//107
f 230//108 234//108 231//108
f 231//109 235//109 232//109
f 233//110 229//110 232//110
f 232//5 229//5 231//5
f 233//6 236//6 234//6
